<svg xmlns="http://www.w3.org/2000/svg" xmlns:xlink="http://www.w3.org/1999/xlink" version="1.1" x="0px" y="0px" viewBox="0 0 100 125" enable-background="new 0 0 100 100" xml:space="preserve"><rect fill="none" width="100" height="100"/><g><path d="M54.598,19.96v1.954h1.417v-1.921c1.421-0.071,2.38-0.401,3.491-1.239l-1.179-0.771c-0.796,0.621-1.447,0.869-2.412,0.924   v-6.229c0.965,0.049,1.616,0.299,2.412,0.92l1.179-0.773c-1.111-0.831-2.07-1.167-3.491-1.238V9.999h-1.417v1.624   c-2.654,0.267-4.359,1.754-4.359,4.167S51.943,19.689,54.598,19.96z M52.764,13.579c0.482-0.47,1.132-0.771,1.928-0.869v6.155   c-0.796-0.094-1.445-0.397-1.928-0.865c-0.551-0.539-0.791-1.172-0.791-2.21C51.973,14.75,52.213,14.114,52.764,13.579z"/><path d="M26.761,38.403v1.876h1.356v-1.848c1.359-0.061,2.277-0.382,3.338-1.185l-1.127-0.737   c-0.757,0.594-1.382,0.834-2.304,0.883V31.43c0.922,0.049,1.547,0.293,2.304,0.879l1.127-0.737   c-1.061-0.802-1.979-1.124-3.338-1.185v-1.522h-1.356v1.555c-2.53,0.256-4.167,1.685-4.167,3.994   C22.595,36.722,24.231,38.147,26.761,38.403z M25.011,32.297c0.458-0.448,1.083-0.741,1.842-0.834v5.903   c-0.759-0.102-1.384-0.391-1.842-0.834c-0.527-0.517-0.757-1.124-0.757-2.117C24.254,33.42,24.484,32.81,25.011,32.297z"/><path d="M75.233,35.749V16.061C75.233,9.754,66.414,5,54.712,5C43.019,5,34.197,9.754,34.197,16.061v8.213   c-2.255-0.432-4.71-0.684-7.323-0.684c-11.696,0-20.516,4.759-20.516,11.065v46.134c0,6.306,8.82,11.061,20.516,11.061   c10.948,0,19.377-4.168,20.413-9.867c1.663,0.329,3.446,0.541,5.319,0.643v1.315C52.605,90.245,61.427,95,73.12,95   c11.702,0,20.521-4.755,20.521-11.061V46.761C93.642,40.838,85.864,36.287,75.233,35.749z M11.724,42.25   c0.138,0.077,0.272,0.167,0.419,0.248c0.495,0.269,1.016,0.525,1.565,0.766c0.071,0.037,0.151,0.057,0.228,0.093   c0.48,0.204,0.975,0.399,1.492,0.578c0.199,0.073,0.413,0.134,0.619,0.204c0.409,0.126,0.816,0.252,1.244,0.371   c0.25,0.069,0.499,0.126,0.753,0.191c0.411,0.098,0.825,0.191,1.252,0.281c0.269,0.053,0.54,0.106,0.816,0.155   c0.438,0.081,0.887,0.143,1.339,0.204c0.274,0.041,0.547,0.081,0.824,0.114c0.5,0.057,1.005,0.098,1.519,0.138   c0.248,0.017,0.488,0.041,0.741,0.053c0.77,0.045,1.545,0.069,2.339,0.069c0.8,0,1.577-0.024,2.345-0.069   c0.248-0.012,0.49-0.037,0.735-0.053c0.515-0.041,1.023-0.081,1.524-0.138c0.277-0.033,0.547-0.073,0.824-0.114   c0.45-0.061,0.902-0.126,1.341-0.204c0.273-0.049,0.54-0.102,0.808-0.155c0.428-0.09,0.847-0.183,1.26-0.281   c0.254-0.065,0.504-0.122,0.749-0.188c0.423-0.122,0.845-0.248,1.25-0.378c0.206-0.065,0.419-0.126,0.619-0.2   c0.517-0.179,1.016-0.375,1.492-0.582c0.077-0.033,0.153-0.053,0.224-0.089c0.552-0.24,1.073-0.497,1.569-0.766   c0.147-0.085,0.277-0.171,0.419-0.248c0.338-0.204,0.667-0.399,0.977-0.611c0.051-0.037,0.114-0.069,0.169-0.106v6.074   c-2.449,3.029-8.915,5.267-16.306,5.267c-7.381,0-13.847-2.238-16.296-5.267v-6.074c0.055,0.037,0.112,0.069,0.165,0.106   C11.054,41.852,11.386,42.047,11.724,42.25z M71.012,35.749c-8.369,0.419-14.958,3.338-17.387,7.45   c-2.206-0.069-4.311-0.317-6.23-0.741V35.68c2.251,0.456,4.716,0.713,7.317,0.713c6.91,0,12.856-1.767,16.3-4.474V35.749z    M52.605,46.761v5.349c-1.836-0.105-3.588-0.342-5.211-0.708v-6.786c1.684,0.35,3.497,0.57,5.398,0.667   C52.685,45.764,52.605,46.256,52.605,46.761z M43.179,56.563c-2.449,3.024-8.915,5.264-16.306,5.264   c-7.381,0-13.847-2.239-16.296-5.264v-6.057c3.446,2.71,9.396,4.473,16.296,4.473c6.908,0,12.855-1.763,16.306-4.473V56.563z    M10.578,59.457c3.446,2.715,9.396,4.478,16.296,4.478c6.908,0,12.855-1.763,16.306-4.478v6.054   c-2.449,3.032-8.915,5.268-16.306,5.268c-7.381,0-13.847-2.235-16.296-5.268V59.457z M47.395,53.591   c1.632,0.33,3.379,0.541,5.211,0.639v6.835c-1.836-0.109-3.588-0.346-5.211-0.704V53.591z M56.825,62.612   c3.441,2.711,9.392,4.474,16.295,4.474c6.904,0,12.854-1.763,16.3-4.474v6.057c-2.44,3.025-8.915,5.264-16.3,5.264   c-7.38,0-13.851-2.238-16.295-5.264V62.612z M10.578,68.413c3.446,2.715,9.396,4.47,16.296,4.47c6.908,0,12.855-1.755,16.306-4.47   v6.053c-2.449,3.029-8.915,5.264-16.306,5.264c-7.381,0-13.847-2.234-16.296-5.264V68.413z M47.395,62.538   c1.632,0.334,3.379,0.55,5.211,0.647v6.831c-1.836-0.109-3.588-0.346-5.211-0.704V62.538z M56.825,71.567   c3.441,2.712,9.392,4.475,16.295,4.475c6.904,0,12.854-1.763,16.3-4.475v6.05c-2.44,3.033-8.915,5.264-16.3,5.264   c-7.38,0-13.851-2.23-16.295-5.264V71.567z M89.42,53.64v6.069c-2.44,3.033-8.915,5.264-16.3,5.264   c-7.38,0-13.851-2.23-16.295-5.264v-5.512c0.272-0.017,0.558-0.017,0.824-0.036c0.104,0.064,0.209,0.13,0.323,0.19   c0.139,0.082,0.265,0.172,0.413,0.249c0.495,0.269,1.016,0.525,1.563,0.77c0.077,0.032,0.156,0.061,0.232,0.089   c0.48,0.208,0.977,0.399,1.493,0.582c0.202,0.069,0.414,0.135,0.619,0.2c0.407,0.13,0.816,0.26,1.246,0.37   c0.244,0.069,0.496,0.13,0.753,0.191c0.409,0.102,0.824,0.195,1.25,0.281c0.269,0.053,0.541,0.105,0.812,0.154   c0.442,0.081,0.888,0.15,1.342,0.208c0.272,0.04,0.543,0.081,0.824,0.105c0.501,0.062,1.008,0.102,1.521,0.143   c0.246,0.017,0.49,0.045,0.736,0.053c0.77,0.045,1.552,0.073,2.343,0.073c0.798,0,1.578-0.028,2.346-0.073   c0.25-0.008,0.486-0.036,0.734-0.053c0.513-0.041,1.025-0.081,1.524-0.143c0.277-0.024,0.546-0.065,0.82-0.105   c0.454-0.058,0.904-0.131,1.342-0.208c0.276-0.049,0.545-0.102,0.812-0.154c0.428-0.086,0.847-0.18,1.263-0.281   c0.248-0.062,0.496-0.122,0.749-0.188c0.421-0.114,0.836-0.244,1.245-0.378c0.206-0.062,0.415-0.127,0.617-0.196   c0.515-0.183,1.016-0.374,1.498-0.582c0.073-0.028,0.15-0.057,0.224-0.089c0.548-0.244,1.068-0.501,1.562-0.77   c0.148-0.082,0.282-0.167,0.425-0.253c0.334-0.195,0.664-0.395,0.976-0.606C89.311,53.709,89.371,53.676,89.42,53.64z    M89.42,46.761c0,3.229-6.967,6.838-16.3,6.838c-9.328,0-16.295-3.609-16.295-6.838c0-3.232,6.967-6.847,16.295-6.847   C82.453,39.914,89.42,43.529,89.42,46.761z M54.712,9.215c9.328,0,16.3,3.615,16.3,6.845c0,3.232-6.972,6.849-16.3,6.849   s-16.295-3.617-16.295-6.849C38.417,12.83,45.384,9.215,54.712,9.215z M38.417,22.946c0.051,0.033,0.114,0.065,0.163,0.102   c0.312,0.212,0.646,0.411,0.981,0.611c0.143,0.077,0.275,0.167,0.417,0.244c0.495,0.273,1.018,0.529,1.565,0.77   c0.075,0.037,0.154,0.065,0.23,0.094c0.476,0.208,0.977,0.399,1.494,0.582c0.202,0.069,0.409,0.134,0.619,0.199   c0.407,0.13,0.816,0.252,1.246,0.371c0.248,0.069,0.497,0.13,0.753,0.191c0.409,0.102,0.824,0.195,1.25,0.281   c0.269,0.053,0.541,0.106,0.816,0.151c0.438,0.081,0.883,0.146,1.337,0.211c0.273,0.037,0.543,0.078,0.826,0.11   c0.499,0.053,1.007,0.098,1.519,0.139c0.246,0.016,0.49,0.041,0.74,0.057c0.766,0.041,1.547,0.065,2.339,0.065   c0.8,0,1.577-0.024,2.345-0.065c0.251-0.016,0.491-0.041,0.735-0.057c0.513-0.041,1.025-0.085,1.526-0.139   c0.274-0.032,0.548-0.073,0.818-0.11c0.462-0.065,0.905-0.13,1.345-0.211c0.273-0.045,0.542-0.098,0.809-0.151   c0.43-0.085,0.847-0.179,1.262-0.281c0.248-0.061,0.505-0.122,0.745-0.188c0.426-0.122,0.841-0.244,1.25-0.378   c0.205-0.061,0.415-0.126,0.621-0.195c0.513-0.183,1.011-0.375,1.493-0.586c0.075-0.024,0.153-0.053,0.225-0.089   c0.551-0.24,1.068-0.497,1.563-0.77c0.146-0.082,0.281-0.167,0.424-0.248c0.338-0.196,0.668-0.399,0.977-0.607   c0.054-0.037,0.114-0.069,0.163-0.102v6.07c-2.44,3.028-8.913,5.268-16.3,5.268c-2.642,0-5.16-0.297-7.419-0.806   c-0.617-3.444-3.937-6.33-8.876-8.081V22.946z M26.874,27.807c9.334,0,16.306,3.615,16.306,6.848c0,3.232-6.971,6.847-16.306,6.847   c-9.325,0-16.296-3.615-16.296-6.847C10.578,31.422,17.549,27.807,26.874,27.807z M26.874,87.627   c-9.325,0-16.296-3.61-16.296-6.839v-3.419c3.446,2.711,9.396,4.474,16.296,4.474c6.908,0,12.855-1.763,16.306-4.474v3.419   C43.179,84.017,36.208,87.627,26.874,87.627z M47.395,77.666v-6.172c1.632,0.334,3.379,0.55,5.211,0.64v6.253   C50.737,78.276,48.98,78.032,47.395,77.666z M73.12,90.782c-9.328,0-16.295-3.615-16.295-6.843v-3.42   c3.441,2.711,9.392,4.474,16.295,4.474c6.904,0,12.854-1.763,16.3-4.474v3.42C89.42,87.167,82.453,90.782,73.12,90.782z"/><path d="M73.007,40.781v1.604c-2.614,0.265-4.299,1.738-4.299,4.111c0,2.382,1.685,3.847,4.299,4.108v1.936h1.398v-1.899   c1.4-0.065,2.343-0.395,3.436-1.222l-1.158-0.757c-0.786,0.606-1.425,0.854-2.371,0.904v-6.139   c0.946,0.049,1.585,0.297,2.371,0.904l1.158-0.757c-1.093-0.826-2.035-1.156-3.436-1.221v-1.571H73.007z M73.099,49.537   c-0.786-0.102-1.421-0.399-1.897-0.863c-0.546-0.529-0.781-1.156-0.781-2.178c0-1.021,0.235-1.648,0.781-2.178   c0.477-0.464,1.111-0.757,1.897-0.859V49.537z"/></g><text x="0" y="115" fill="#000000" font-size="5px" font-weight="bold" font-family="'Helvetica Neue', Helvetica, Arial-Unicode, Arial, Sans-serif">Created by hunotika</text><text x="0" y="120" fill="#000000" font-size="5px" font-weight="bold" font-family="'Helvetica Neue', Helvetica, Arial-Unicode, Arial, Sans-serif">from the Noun Project</text></svg>