<svg xmlns="http://www.w3.org/2000/svg" xmlns:xlink="http://www.w3.org/1999/xlink" version="1.1" x="0px" y="0px" viewBox="0 0 100 125" style="enable-background:new 0 0 100 100;" xml:space="preserve"><g><path d="M58.05224,16.45096C46.58221,4.991,27.92224,4.991,16.46221,16.46097c-11.47003,11.45996-11.47003,30.11987,0,41.58984   c11.49915,11.49915,30.1958,11.43435,41.59003,0C69.52221,46.58084,69.52221,27.92093,58.05224,16.45096z M18.60223,57.27103   v-7.26025c0-3.03979,2.47998-5.50977,5.51001-5.50977H50.3822c3.04004,0,5.51001,2.46997,5.51001,5.50977v7.28027   C45.54058,67.04005,29.07432,67.15096,18.60223,57.27103z M50.3822,42.50101H24.11224c-4.14001,0-7.51001,3.36987-7.51001,7.50977   v5.25C7.2022,44.52103,7.62219,28.12088,17.87219,17.87088c10.69685-10.69648,28.05998-10.69024,38.77002,0   c10.23999,10.25,10.66003,26.67017,1.25,37.40991v-5.27002C57.89221,45.87088,54.52221,42.50101,50.3822,42.50101z"/><path d="M95.04223,80.75101L76.31219,62.02103c-1.25995-1.26025-3.45996-1.26025-4.71997,0l-5.08002-5.08008   c3.98999-5.93018,5.97998-12.81006,5.97998-19.68994c0-9.03003-3.42999-18.05005-10.29998-24.93018   c-13.75-13.73999-36.12-13.73999-49.87,0c-13.73999,13.75-13.73999,36.12012,0,49.86011   c12.08203,12.08224,30.88622,13.57112,44.61993,4.32984l5.08008,5.08008c-0.63,0.63013-0.97998,1.45996-0.97998,2.36011   c0,0.88989,0.34998,1.71997,0.97998,2.36011L80.7622,95.04105c3.94432,3.94305,10.3742,3.90518,14.28003,0   C98.92777,91.15551,98.99803,84.70554,95.04223,80.75101z M13.74218,60.77103c-12.96997-12.97021-12.96997-34.07007,0-47.03003   c12.94698-12.96686,34.06963-12.98041,47.03003,0c12.6615,12.65038,13.29157,33.73704,0,47.03003   c-1.14001,1.1499-2.34998,2.18994-3.60999,3.12988h-0.01001C44.50469,73.50771,25.71832,72.74698,13.74218,60.77103z    M58.59222,65.33085c1.25-0.95996,2.46002-2.01001,3.59998-3.14991c1.14001-1.13989,2.19-2.34009,3.13-3.59009h0.01001   l4.84003,4.84009v0.01001c-0.10737,0.10737-7.04445,7.04438-6.73004,6.72998L58.59222,65.33085z M63.4422,74.89091   c-0.26001-0.25-0.39996-0.59009-0.39996-0.93994c0-0.36011,0.13995-0.69995,0.39996-0.94995   c11.68991-11.70223,9.201-9.2107,9.55999-9.57007c0.25-0.25,0.59003-0.38989,0.95001-0.38989c0.35004,0,0.69,0.13989,0.94,0.38989   l18.54004,18.54004h-0.00006L81.97222,93.43095L63.4422,74.89091z M93.63219,93.6309   c-2.86797,2.83185-7.14301,2.99121-10.09998,1.08008l11.17999-11.18994C96.70304,86.59676,96.38548,90.84228,93.63219,93.6309z"/><path d="M37.25219,19.20096c-5.26001,0-9.52997,4.27002-9.52997,9.52002c0,5.26001,4.26996,9.53003,9.52997,9.53003   c5.25,0,9.52002-4.27002,9.52002-9.53003C46.77221,23.47098,42.50219,19.20096,37.25219,19.20096z M37.25219,36.25101   c-4.14996,0-7.52997-3.37012-7.52997-7.53003c0-4.14014,3.38001-7.52002,7.52997-7.52002   c4.14001,0,7.52002,3.37988,7.52002,7.52002C44.77221,32.88089,41.39221,36.25101,37.25219,36.25101z"/><path d="M79.98217,15.13968c0.14941,0,0.30078-0.04492,0.43262-0.1377l7.62402-5.39746   c0.33789-0.23926,0.41797-0.70801,0.17871-1.0459c-0.23926-0.33691-0.70605-0.41797-1.0459-0.17871l-7.62402,5.39746   c-0.33789,0.23926-0.41797,0.70801-0.17871,1.0459C79.51537,15.02933,79.74682,15.13968,79.98217,15.13968z"/><path d="M74.73412,18.83402c0.14844,0,0.2998-0.04395,0.43066-0.13672l1.6748-1.17871   c0.33887-0.23828,0.41992-0.70605,0.18164-1.04492c-0.2373-0.33789-0.70508-0.42188-1.04492-0.18164l-1.6748,1.17871   c-0.33887,0.23828-0.41992,0.70605-0.18164,1.04492C74.26635,18.72367,74.4978,18.83402,74.73412,18.83402z"/><path d="M70.59252,13.1807c0.05176,0.01074,0.10449,0.01563,0.15527,0.01563c0.34668,0,0.65918-0.24219,0.7334-0.5957   l1.98145-9.44336c0.08496-0.40527-0.1748-0.80371-0.58008-0.88867c-0.40625-0.08594-0.80371,0.1748-0.88867,0.58008   l-1.98145,9.44336C69.92748,12.6973,70.18725,13.09574,70.59252,13.1807z"/><path d="M78.61987,24.4639l9.58105,1.30273c0.03418,0.00488,0.06738,0.00684,0.10156,0.00684   c0.36914,0,0.69141-0.27246,0.74219-0.64941c0.05566-0.41016-0.23145-0.78809-0.64258-0.84375l-9.58105-1.30273   c-0.40625-0.05859-0.78809,0.23047-0.84375,0.64258C77.92162,24.03031,78.20873,24.40824,78.61987,24.4639z"/></g><text x="0" y="115" fill="#000000" font-size="5px" font-weight="bold" font-family="'Helvetica Neue', Helvetica, Arial-Unicode, Arial, Sans-serif">Created by Vectors Point</text><text x="0" y="120" fill="#000000" font-size="5px" font-weight="bold" font-family="'Helvetica Neue', Helvetica, Arial-Unicode, Arial, Sans-serif">from the Noun Project</text></svg>