<svg xmlns="http://www.w3.org/2000/svg" xmlns:xlink="http://www.w3.org/1999/xlink" xml:space="preserve" version="1.1" style="shape-rendering:geometricPrecision;text-rendering:geometricPrecision;image-rendering:optimizeQuality;" viewBox="0 0 281 111.25" x="0px" y="0px" fill-rule="evenodd" clip-rule="evenodd"><defs><style type="text/css">
   
    .fil0 {fill:black}
   
  </style></defs><g><polygon class="fil0" points="140,0 149,28 179,28 155,46 164,74 140,56 116,74 126,46 101,28 131,28 "/><polygon class="fil0" points="201,21 208,43 232,43 212,57 220,80 201,66 181,80 189,57 170,43 193,43 "/><polygon class="fil0" points="253,38 260,57 281,57 264,70 270,89 253,77 237,89 243,70 226,57 247,57 "/><polygon class="fil0" points="80,21 73,43 49,43 68,57 61,80 80,66 99,80 92,57 111,43 87,43 "/><polygon class="fil0" points="27,38 21,57 0,57 17,70 10,89 27,77 44,89 38,70 54,57 34,57 "/></g><text x="0" y="104" fill="#000000" font-size="5px" font-weight="bold" font-family="'Helvetica Neue', Helvetica, Arial-Unicode, Arial, Sans-serif">Created by yasminvisible</text><text x="0" y="109" fill="#000000" font-size="5px" font-weight="bold" font-family="'Helvetica Neue', Helvetica, Arial-Unicode, Arial, Sans-serif">from the Noun Project</text></svg>